<svg width="187" height="32" viewBox="0 0 187 32" fill="none" xmlns="http://www.w3.org/2000/svg">
<path d="M28.737 25.6756C28.737 25.217 28.8817 24.7785 29.1566 24.4208L20.0648 8.41562C19.949 8.43578 19.8284 8.45089 19.7127 8.45089L16.1386 18.6406C17.8798 19.7341 18.42 22.1177 17.3251 23.9168C16.293 25.6151 14.1418 26.1694 12.4729 25.1767C10.698 24.1184 10.1144 21.7499 11.161 19.9306C11.3202 19.6585 11.5083 19.4065 11.7253 19.1848L8.65775 14.3571C8.55646 14.3772 8.45035 14.3873 8.34424 14.3873C8.23812 14.3873 8.13201 14.3772 8.0259 14.352L1.52897 24.5064C2.14635 25.4135 1.94377 26.6734 1.07559 27.3184C0.762075 27.5553 0.385861 27.6863 0 27.6913V28.5329V30.3471C0 31.2643 0.704196 32 1.57721 32H29.0505C29.9235 32 30.6277 31.2643 30.6277 30.3521V27.6964C29.5762 27.6712 28.737 26.7741 28.737 25.6756Z" fill="white"/>
<path d="M30.6277 1.663C30.6277 1.65796 30.6277 1.65292 30.6277 1.64788C30.6277 0.735752 29.9235 0 29.0505 0H1.57721C0.704196 0 0 0.735752 0 1.64788V1.663V23.66C0.130228 23.665 0.255633 23.6801 0.381037 23.7104L6.87797 13.556C6.33776 12.6942 6.58375 11.5352 7.43264 10.9909C8.14166 10.5374 9.07737 10.6785 9.63687 11.3235C10.1819 11.9535 10.235 12.8706 9.80086 13.556L12.8685 18.3837C13.4907 18.1066 14.1756 18.0259 14.8412 18.1418C16.0325 14.7453 17.2287 11.3487 18.42 7.95217C17.5518 7.17611 17.4747 5.79027 18.285 4.91845C18.965 4.18774 20.0744 4.08695 20.8654 4.68664C21.8011 5.39216 21.9603 6.75783 21.2513 7.68005L30.3479 23.6852C30.4396 23.6701 30.5312 23.66 30.6277 23.66V1.663Z" fill="white"/>
<path d="M38.0278 6.90228H41.0898L47.0631 18.8992L53.0365 6.90228H56.0985V24.9729H52.911V14.1807L47.6655 24.9729H46.4608L41.2153 14.1807V24.9729H38.0278V6.90228Z" fill="white"/>
<path d="M70.4383 13.5031C70.6809 13.9548 70.8315 14.415 70.8901 14.8835C70.957 15.3436 70.9905 15.946 70.9905 16.6905V24.9729H68.0038V23.3164C67.4014 24.0359 66.7405 24.5546 66.021 24.8725C65.3016 25.1904 64.4231 25.3494 63.3857 25.3494C62.4487 25.3494 61.6372 25.1695 60.9512 24.8098C60.2736 24.4417 59.7549 23.9439 59.3951 23.3164C59.0438 22.689 58.8681 21.9946 58.8681 21.2333C58.8681 20.2461 59.0981 19.4137 59.5583 18.736C60.0184 18.0584 60.7755 17.5271 61.8297 17.1423C62.4153 16.9248 63.1306 16.7407 63.9755 16.5901C64.8205 16.4312 66.0378 16.2346 67.6273 16.0003C67.5604 15.3645 67.3261 14.9002 66.9246 14.6074C66.5314 14.3062 65.9374 14.1556 65.1426 14.1556C64.5653 14.1556 64.0174 14.2895 63.4987 14.5572C62.98 14.8249 62.6244 15.2432 62.432 15.8121L59.3449 14.8333C59.6963 13.662 60.3572 12.7376 61.3277 12.0599C62.2982 11.3823 63.5698 11.0435 65.1426 11.0435C67.8114 11.0435 69.5766 11.8633 70.4383 13.5031ZM67.2508 20.8568C67.4684 20.4134 67.5855 19.7149 67.6022 18.7611C66.4226 18.9619 65.5567 19.1209 65.0046 19.238C64.4524 19.3551 63.9881 19.4848 63.6116 19.627C63.118 19.8278 62.7583 20.0537 62.5324 20.3047C62.3149 20.5473 62.2061 20.8401 62.2061 21.1831C62.2061 21.6432 62.3734 22.0071 62.7081 22.2749C63.0511 22.5342 63.5196 22.6639 64.1136 22.6639C64.6908 22.6639 65.197 22.5635 65.632 22.3627C66.067 22.1536 66.4142 21.9109 66.6736 21.6349C66.9413 21.3588 67.1337 21.0994 67.2508 20.8568Z" fill="white"/>
<path d="M78.7209 12.0725C79.4822 11.604 80.3857 11.3697 81.4315 11.3697C81.7159 11.3697 81.9753 11.3865 82.2095 11.4199V14.6074C81.9502 14.5237 81.6281 14.4819 81.2432 14.4819C80.6074 14.4819 80.0427 14.599 79.5491 14.8333C78.9468 15.1094 78.4866 15.5193 78.1687 16.0631C77.8508 16.6069 77.6918 17.2678 77.6918 18.0458V24.9729H74.2534V11.4199H77.2652V13.6035C77.6416 12.9258 78.1269 12.4155 78.7209 12.0725Z" fill="white"/>
<path d="M84.5966 6.90228H88.0601V17.9454L92.6531 11.4199H96.8695L91.9754 18.1964L97.1958 24.9729H92.7534L88.0601 18.4474V24.9729H84.5715L84.5966 6.90228Z" fill="white"/>
<path d="M101.123 19.1501C101.249 20.1206 101.579 20.8652 102.115 21.3839C102.659 21.9026 103.386 22.1619 104.298 22.1619C104.959 22.1619 105.528 22.0155 106.005 21.7227C106.49 21.4299 106.858 21.0074 107.109 20.4553L110.523 21.4341C110.188 22.2456 109.715 22.9483 109.105 23.5423C108.494 24.1279 107.791 24.5755 106.996 24.8851C106.202 25.1946 105.369 25.3494 104.499 25.3494C103.127 25.3494 101.906 25.0524 100.835 24.4584C99.7724 23.8644 98.9399 23.0362 98.3376 21.9737C97.7436 20.9112 97.4466 19.7107 97.4466 18.3721C97.4466 16.9164 97.7352 15.6364 98.3125 14.5321C98.8981 13.4194 99.7096 12.5619 100.747 11.9595C101.784 11.3488 102.968 11.0435 104.298 11.0435C105.603 11.0435 106.737 11.3321 107.699 11.9094C108.661 12.4866 109.397 13.3065 109.908 14.369C110.426 15.4314 110.686 16.678 110.686 18.1086C110.686 18.3345 110.669 18.6817 110.636 19.1501H101.123ZM104.449 14.005C102.65 14.005 101.571 14.8751 101.211 16.6152H107.185C107.068 15.7033 106.787 15.0424 106.344 14.6325C105.909 14.2142 105.277 14.005 104.449 14.005Z" fill="white"/>
<path d="M117.686 19.74C117.686 20.175 117.702 20.5264 117.736 20.7941C117.769 21.0618 117.845 21.2835 117.962 21.4592C118.305 22.003 118.982 22.2749 119.995 22.2749C120.38 22.2749 120.915 22.2288 121.601 22.1368V24.9729C120.731 25.1319 119.919 25.2113 119.166 25.2113C118.146 25.2113 117.259 25.0607 116.506 24.7596C115.753 24.45 115.193 23.9606 114.824 23.2913C114.599 22.873 114.448 22.4464 114.373 22.0113C114.297 21.5763 114.26 21.0618 114.26 20.4678L114.272 19.2254V14.0552H111.963V11.4199H114.272V7.65522H117.686V11.4199H121.601V14.0552H117.686V19.74Z" fill="white"/>
<path d="M124.739 6.90195H135.117V8.74666H126.583V15.0212H133.611V16.8533H126.583V24.9726H124.739V6.90195Z" fill="white"/>
<path d="M142.678 25.349C141.356 25.349 140.21 25.0479 139.239 24.4455C138.277 23.8348 137.541 22.9898 137.031 21.9106C136.52 20.8314 136.265 19.589 136.265 18.1835C136.265 16.7697 136.524 15.5231 137.043 14.4439C137.562 13.3647 138.302 12.5281 139.264 11.9341C140.235 11.3401 141.372 11.0431 142.678 11.0431C144.008 11.0431 145.154 11.3443 146.116 11.9467C147.086 12.549 147.827 13.3898 148.337 14.469C148.848 15.5482 149.103 16.7864 149.103 18.1835C149.103 19.6058 148.843 20.8565 148.325 21.9357C147.814 23.0149 147.074 23.8557 146.103 24.4581C145.141 25.052 143.999 25.349 142.678 25.349ZM142.678 23.5796C143.656 23.5796 144.48 23.3579 145.15 22.9145C145.819 22.4628 146.317 21.8353 146.643 21.0322C146.978 20.2207 147.145 19.2711 147.145 18.1835C147.145 16.5103 146.764 15.1969 146.003 14.2431C145.25 13.2894 144.142 12.8125 142.678 12.8125C141.205 12.8125 140.092 13.2978 139.34 14.2682C138.595 15.2303 138.223 16.5354 138.223 18.1835C138.223 19.2795 138.39 20.2332 138.725 21.0447C139.068 21.8562 139.57 22.4837 140.231 22.9271C140.9 23.3621 141.715 23.5796 142.678 23.5796Z" fill="white"/>
<path d="M154.582 12.3106C154.958 11.9759 155.406 11.725 155.924 11.5576C156.451 11.3903 156.983 11.3067 157.518 11.3067C157.878 11.3067 158.217 11.3443 158.534 11.4196V13.1514C158.175 13.0677 157.828 13.0259 157.493 13.0259C156.623 13.0259 155.891 13.2727 155.297 13.7663C154.678 14.2515 154.259 14.8706 154.042 15.6235C153.824 16.3765 153.716 17.2382 153.716 18.2086V24.9726H151.871V11.4196H153.527V13.5655C153.82 13.0468 154.172 12.6285 154.582 12.3106Z" fill="white"/>
<path d="M166.292 25.349C164.953 25.349 163.807 25.0479 162.854 24.4455C161.908 23.8432 161.184 23.0024 160.683 21.9232C160.189 20.8439 159.934 19.6016 159.917 18.1961C159.934 16.7655 160.193 15.5148 160.695 14.4439C161.197 13.3647 161.925 12.5281 162.879 11.9341C163.832 11.3401 164.974 11.0431 166.305 11.0431C167.208 11.0431 168.045 11.1937 168.814 11.4949C169.584 11.7961 170.241 12.2311 170.785 12.8C171.328 13.3605 171.726 14.0256 171.977 14.7953L170.17 15.3726C169.852 14.5694 169.346 13.942 168.651 13.4902C167.965 13.0384 167.179 12.8125 166.292 12.8125C164.845 12.8125 163.749 13.2978 163.004 14.2682C162.268 15.2387 161.891 16.548 161.875 18.1961C161.891 19.8609 162.276 21.1744 163.029 22.1365C163.782 23.0986 164.87 23.5796 166.292 23.5796C167.212 23.5796 167.994 23.3705 168.639 22.9522C169.291 22.5255 169.785 21.9064 170.119 21.0949L171.977 21.6471C171.466 22.8518 170.726 23.772 169.755 24.4079C168.785 25.0353 167.631 25.349 166.292 25.349Z" fill="white"/>
<path d="M175.417 18.7106C175.492 20.2667 175.914 21.4672 176.684 22.3122C177.454 23.1571 178.512 23.5796 179.859 23.5796C180.821 23.5796 181.666 23.3579 182.394 22.9145C183.122 22.4628 183.695 21.8144 184.113 20.9694L185.832 21.6345C185.297 22.8141 184.511 23.7302 183.473 24.3828C182.436 25.0269 181.256 25.349 179.934 25.349C178.629 25.349 177.487 25.0562 176.508 24.4706C175.53 23.885 174.773 23.0609 174.237 21.9984C173.71 20.9276 173.446 19.6811 173.446 18.2588C173.446 16.7948 173.706 15.519 174.225 14.4314C174.752 13.3438 175.496 12.5072 176.458 11.9216C177.429 11.3359 178.562 11.0431 179.859 11.0431C181.156 11.0431 182.268 11.3359 183.197 11.9216C184.134 12.4988 184.849 13.3354 185.343 14.4314C185.845 15.519 186.096 16.8157 186.096 18.3216V18.7106H175.417ZM179.909 12.7373C178.613 12.7373 177.579 13.1179 176.81 13.8792C176.048 14.6405 175.597 15.7365 175.454 17.1671H184.163C184.03 15.703 183.603 14.5987 182.883 13.8541C182.164 13.1095 181.173 12.7373 179.909 12.7373Z" fill="white"/>
</svg>
